<svg width="1019" height="1019" viewBox="0 0 1019 1019" fill="none" xmlns="http://www.w3.org/2000/svg">
<rect width="1018.92" height="1018.92" fill="#0B0B0B"/>
<path d="M82.4133 564.701H138.159C147.977 564.701 156.195 566.828 162.813 571.083C163.94 571.737 165.177 572.665 166.522 573.865C171.94 578.992 174.65 585.41 174.65 593.119C174.65 599.592 172.686 605.137 168.759 609.756C167.74 610.883 166.886 611.701 166.195 612.21C164.559 613.592 163.14 614.592 161.94 615.21C155.359 619.028 147.431 620.937 138.159 620.937L96.1587 621.156H95.0133V633.537C95.0133 635.865 93.9769 637.828 91.9042 639.428C90.6315 640.265 89.2133 640.683 87.6497 640.683H75.377V571.737C75.377 569.737 76.2679 567.919 78.0497 566.283C79.3951 565.228 80.8497 564.701 82.4133 564.701ZM95.0133 584.392V601.574H139.577C143.831 601.574 146.886 600.683 148.74 598.901C149.068 598.574 149.413 598.21 149.777 597.81C150.795 596.392 151.304 594.792 151.304 593.01C151.304 589.301 149.486 586.719 145.85 585.265C144.213 584.683 142.159 584.392 139.686 584.392H95.0133Z" fill="#FEFEFE"/>
<path d="M191.94 564.701H247.249C254.704 564.701 261.14 565.865 266.559 568.192C267.649 568.628 268.504 568.992 269.122 569.283C270.031 569.792 270.995 570.392 272.013 571.083C276.849 574.028 280.286 578.192 282.322 583.574C283.413 586.446 283.959 589.501 283.959 592.737V593.446C283.959 597.337 283.14 601.01 281.504 604.465C280.995 605.446 280.359 606.537 279.595 607.737C278.94 608.61 278.159 609.537 277.249 610.519C276.813 611.028 276.377 611.483 275.94 611.883L275.395 612.428L274.959 612.756L274.14 613.41C273.486 613.883 272.668 614.428 271.686 615.046C271.54 615.119 271.395 615.21 271.249 615.319C270.268 615.828 269.377 616.283 268.577 616.683C268.177 616.865 267.795 617.046 267.431 617.228C266.013 617.81 264.522 618.337 262.959 618.81C267.468 623.465 270.559 626.846 272.231 628.956C273.359 630.228 274.468 631.483 275.559 632.719C277.631 635.119 279.613 637.355 281.504 639.428C282.086 639.974 282.431 640.355 282.54 640.574H258.977C257.631 640.574 256.577 640.428 255.813 640.137C255.595 640.028 255.395 639.919 255.213 639.81C255.031 639.701 254.831 639.574 254.613 639.428C253.849 638.919 252.995 638.065 252.049 636.865C248.595 632.756 244.94 628.265 241.086 623.392L239.177 620.937C239.068 620.937 238.849 620.974 238.522 621.046C236.268 621.046 229.486 621.083 218.177 621.156H204.322V633.537C204.322 635.865 203.322 637.828 201.322 639.428C200.122 640.265 198.74 640.683 197.177 640.683H184.686V572.337C184.686 571.101 184.831 570.119 185.122 569.392C185.268 568.956 185.522 568.446 185.886 567.865C186.14 567.501 186.45 567.156 186.813 566.828C188.34 565.41 190.05 564.701 191.94 564.701ZM204.322 584.392V601.574H248.995C252.486 601.574 255.14 600.974 256.959 599.774C258.268 598.937 259.231 597.828 259.849 596.446C260.359 595.392 260.613 594.192 260.613 592.846C260.613 590.192 259.395 587.974 256.959 586.192C256.595 585.937 256.213 585.719 255.813 585.537C255.704 585.501 255.595 585.446 255.486 585.374C254.831 585.046 253.831 584.756 252.486 584.501C252.049 584.501 251.449 584.465 250.686 584.392H204.322Z" fill="#FEFEFE"/>
<path d="M322.14 564.701H361.249C367.831 564.701 373.977 566.683 379.686 570.646C380.631 571.228 381.813 572.174 383.231 573.483C383.449 573.665 383.686 573.865 383.94 574.083C385.722 576.119 387.013 577.683 387.813 578.774C391.631 584.41 393.54 590.628 393.54 597.428V607.956C393.54 615.992 390.94 623.137 385.74 629.392C384.104 631.174 382.758 632.446 381.704 633.21C379.886 634.737 378.013 635.992 376.086 636.974C371.358 639.446 366.377 640.683 361.14 640.683H322.249C315.231 640.683 308.758 638.519 302.831 634.192C301.849 633.428 300.468 632.174 298.686 630.428C296.904 628.501 295.686 626.937 295.031 625.737C291.577 620.392 289.849 614.537 289.849 608.174V597.21C289.849 589.756 292.231 582.992 296.995 576.919C297.686 576.119 298.813 574.883 300.377 573.21C301.94 571.865 303.286 570.865 304.413 570.21C309.977 566.537 315.886 564.701 322.14 564.701ZM309.54 597.701V607.628C309.54 610.319 310.104 612.556 311.231 614.337C311.449 614.992 312.104 615.919 313.195 617.119C315.777 619.737 318.904 621.046 322.577 621.046H360.813C365.068 621.046 368.522 619.319 371.177 615.865C371.94 614.883 372.54 613.883 372.977 612.865C373.558 611.446 373.849 609.628 373.849 607.41V598.137C373.849 595.774 373.595 594.01 373.086 592.846C371.958 589.974 370.068 587.756 367.413 586.192C365.413 584.992 363.249 584.392 360.922 584.392H322.468C318.249 584.392 314.758 586.174 311.995 589.737C311.231 590.828 310.704 591.792 310.413 592.628C309.831 593.974 309.54 595.665 309.54 597.701Z" fill="#FEFEFE"/>
<path d="M407.067 564.701H491.558C493.667 564.701 495.413 565.337 496.795 566.61C497.558 567.337 498.049 567.937 498.267 568.41C498.922 569.683 499.249 570.756 499.249 571.628V584.501H458.504V640.683H445.849C444.067 640.683 442.395 639.974 440.831 638.555C440.795 638.519 440.758 638.465 440.722 638.392C440.613 638.283 440.467 638.119 440.286 637.901C439.231 636.519 438.704 635.101 438.704 633.646V584.501H399.377V574.465C399.377 571.883 399.449 570.574 399.595 570.537C399.922 569.083 400.486 567.919 401.286 567.047C402.158 566.283 402.795 565.81 403.195 565.628C404.104 565.01 405.395 564.701 407.067 564.701Z" fill="#A2FF01"/>
<path d="M525.267 564.701H541.249C544.485 564.701 547.195 566.047 549.376 568.737C549.958 569.537 550.685 570.774 551.558 572.446C551.704 572.665 551.831 572.883 551.94 573.101C552.267 573.61 555.067 578.519 560.34 587.828C561.831 590.483 563.54 593.501 565.467 596.883C577.431 618.01 583.576 628.81 583.904 629.283L590.285 640.683H573.485C569.049 640.683 565.776 638.592 563.667 634.41C562.176 631.865 561.085 629.974 560.395 628.737C559.813 627.683 559.485 627.119 559.413 627.046H507.267C507.195 627.046 507.104 627.083 506.995 627.156C506.922 627.228 506.867 627.374 506.831 627.592L501.922 636.21C499.704 639.192 496.758 640.683 493.086 640.683H476.449C476.376 640.683 476.34 640.683 476.34 640.683C476.34 640.646 476.34 640.61 476.34 640.574C484.376 626.356 491.376 614.028 497.34 603.592C502.067 595.265 505.885 588.537 508.795 583.41C513.304 575.446 515.667 571.301 515.885 570.974C516.467 569.883 517.085 568.919 517.74 568.083C519.849 565.828 522.358 564.701 525.267 564.701ZM533.285 580.901L516.213 610.956H550.358C539.195 591.392 533.504 581.374 533.285 580.901Z" fill="#A2FF01"/>
<path d="M623.122 564.701H681.54C684.231 564.701 686.358 565.865 687.922 568.192C688.613 569.392 688.958 570.646 688.958 571.956V584.392H623.449C619.231 584.392 615.776 586.101 613.085 589.519C611.376 591.774 610.522 594.301 610.522 597.101V608.283C610.522 611.628 611.703 614.574 614.067 617.119C615.194 618.174 616.104 618.883 616.794 619.246C617.449 619.683 618.176 620.01 618.976 620.228C620.504 620.774 621.667 621.046 622.467 621.046H688.794V633.646C688.794 635.646 687.903 637.465 686.122 639.101C684.74 640.155 683.213 640.683 681.54 640.683H623.013C616.322 640.683 610.067 638.628 604.249 634.519C603.267 633.828 601.885 632.646 600.104 630.974C598.249 628.974 596.994 627.41 596.34 626.283C595.249 624.61 594.431 623.156 593.885 621.919C591.849 617.701 590.831 612.974 590.831 607.737V597.701C590.831 591.992 592.067 586.846 594.54 582.265C595.194 580.956 596.085 579.465 597.213 577.792C597.504 577.465 597.813 577.101 598.14 576.701C598.685 576.046 599.304 575.337 599.994 574.574C601.922 572.683 603.485 571.374 604.685 570.646C606.722 569.192 608.74 568.028 610.74 567.156C614.885 565.519 619.013 564.701 623.122 564.701Z" fill="#A2FF01"/>
<path d="M704.558 564.701H789.049C791.158 564.701 792.903 565.337 794.285 566.61C795.049 567.337 795.54 567.937 795.758 568.41C796.412 569.683 796.74 570.756 796.74 571.628V584.501H755.994V640.683H743.34C741.558 640.683 739.885 639.974 738.322 638.555C738.285 638.519 738.249 638.465 738.212 638.392C738.103 638.283 737.958 638.119 737.776 637.901C736.722 636.519 736.194 635.101 736.194 633.646V584.501H696.867V574.465C696.867 571.883 696.94 570.574 697.085 570.537C697.413 569.083 697.976 567.919 698.776 567.047C699.649 566.283 700.285 565.81 700.685 565.628C701.594 565.01 702.885 564.701 704.558 564.701Z" fill="#A2FF01"/>
<path d="M807.921 564.701H823.903C826.776 564.701 828.958 565.937 830.449 568.41C831.067 569.465 831.376 570.774 831.376 572.337V640.683H814.958C813.176 640.683 811.503 639.937 809.94 638.446C808.594 637.065 807.921 635.319 807.921 633.21V564.701Z" fill="#A2FF01"/>
<path d="M874.576 564.701H932.994C935.685 564.701 937.812 565.865 939.376 568.192C940.067 569.392 940.412 570.646 940.412 571.956V584.392H874.903C870.685 584.392 867.23 586.101 864.54 589.519C862.83 591.774 861.976 594.301 861.976 597.101V608.283C861.976 611.628 863.158 614.574 865.521 617.119C866.649 618.174 867.558 618.883 868.249 619.246C868.903 619.683 869.63 620.01 870.43 620.228C871.958 620.774 873.121 621.046 873.921 621.046H940.249V633.646C940.249 635.646 939.358 637.465 937.576 639.101C936.194 640.155 934.667 640.683 932.994 640.683H874.467C867.776 640.683 861.521 638.628 855.703 634.519C854.721 633.828 853.34 632.646 851.558 630.974C849.703 628.974 848.449 627.41 847.794 626.283C846.703 624.61 845.885 623.156 845.34 621.919C843.303 617.701 842.285 612.974 842.285 607.737V597.701C842.285 591.992 843.521 586.846 845.994 582.265C846.649 580.956 847.54 579.465 848.667 577.792C848.958 577.465 849.267 577.101 849.594 576.701C850.14 576.046 850.758 575.337 851.449 574.574C853.376 572.683 854.94 571.374 856.14 570.646C858.176 569.192 860.194 568.028 862.194 567.156C866.34 565.519 870.467 564.701 874.576 564.701Z" fill="#A2FF01"/>
<path fill-rule="evenodd" clip-rule="evenodd" d="M485.691 361.106C505.256 355.971 522.427 352.771 536.107 351.711C541.864 351.265 554.477 351.691 555.14 352.354C555.327 352.54 554.912 352.948 553.981 353.494L552.531 354.344L543.19 354.391C529.45 354.462 519.854 355.502 502.847 358.764C493.894 360.481 489.966 361.331 479.219 363.877C471.053 365.812 468.907 366.354 457.146 369.449C453.035 370.531 449.614 371.359 449.544 371.29C449.475 371.22 450.4 370.886 451.601 370.548C452.802 370.21 458.187 368.682 463.567 367.152C473.031 364.461 476.08 363.628 485.691 361.106ZM556.238 355.2C556.506 354.866 557.233 354.257 557.852 353.848C558.959 353.116 559.024 353.11 561.498 353.475C570.072 354.743 581.614 359.228 585.183 362.679C586.95 364.388 590.046 368.806 591.513 371.713C592.494 373.656 592.527 373.774 592.078 373.774C591.904 373.774 591.224 374.034 590.567 374.352C589.375 374.927 589.36 374.927 585.54 374.193C581.123 373.344 574.327 371.823 571.945 371.151C570.189 370.655 568.971 369.508 562.004 361.785C560.462 360.075 558.423 358.03 557.475 357.241C555.826 355.869 555.772 355.78 556.238 355.2ZM591.437 367.056C590.804 366.092 590.286 365.178 590.286 365.024C590.286 364.87 590.358 364.744 590.446 364.744C590.801 364.744 597.618 369.376 599.82 371.112C603.248 373.817 609.966 380.681 612.588 384.159C615.275 387.721 617.317 391.088 616.631 390.825C616.374 390.727 614.371 390.081 612.18 389.391C609.988 388.701 607.881 387.994 607.496 387.82C607.111 387.646 605.745 386.141 604.459 384.476C603.174 382.812 600.695 379.87 598.95 377.938C596.854 375.618 595.238 373.474 594.183 371.618C593.305 370.072 592.07 368.02 591.437 367.056ZM509.641 367.882C509.621 366.993 509.694 366.937 511.501 366.486C512.536 366.227 513.468 366.001 513.573 365.982C513.821 365.938 514.125 367.089 514.13 368.089C514.134 368.816 513.982 368.907 512.103 369.313C509.828 369.804 509.683 369.719 509.641 367.882ZM489.604 371.652C495.067 370.332 500.281 369.064 501.192 368.834C502.102 368.604 503.003 368.403 503.193 368.386C503.574 368.353 503.899 371.031 503.541 371.252C503.261 371.425 484.863 376.072 478.166 377.661C473.704 378.719 470.587 379.253 465.047 379.907C464.084 380.021 463.663 379.96 463.654 379.706C463.646 379.506 463.547 379.123 463.435 378.854C463.268 378.452 463.652 378.252 465.581 377.737C472.937 375.77 480.803 373.778 489.604 371.652ZM540.628 371.352C540.625 371.261 542.146 370.624 544.008 369.937C548.878 368.139 549.289 368.219 547.226 370.563L546.004 371.951L546.775 373.265C547.686 374.82 547.764 375.427 547.018 375.144C546.183 374.828 540.634 371.535 540.628 371.352ZM549.2 373.323L549.103 372.301L549.005 371.279L551.059 371.481C555.028 371.873 555.129 371.913 554.9 372.983C554.789 373.501 554.659 373.969 554.61 374.023C554.561 374.078 553.324 373.942 551.861 373.722L549.2 373.323ZM464.771 373.42C464.771 372.728 465.461 372.022 466.276 371.88C467.761 371.622 468.014 371.676 468.174 372.286C468.349 372.957 467.625 373.376 465.75 373.69C465.023 373.811 464.771 373.741 464.771 373.42ZM556.804 373.76C556.848 373.354 556.939 372.868 557.007 372.68C557.133 372.335 557.756 372.405 561.616 373.193C563.277 373.532 563.576 374.008 562.91 375.253C562.636 375.764 562.485 375.759 559.674 375.144C556.872 374.531 556.729 374.462 556.804 373.76ZM459.657 374.83C459.16 374.522 459.313 373.528 459.88 373.38C460.948 373.101 461.159 373.188 461.159 373.905C461.159 374.651 460.263 375.203 459.657 374.83ZM442.678 375.53C442.662 375.336 443.593 374.947 444.755 374.661C447.866 373.898 447.916 373.905 447.916 375.109C447.916 375.489 447.919 375.741 447.813 375.932C447.596 376.321 446.922 376.456 444.831 376.89L442.799 377.313L442.754 376.597C442.729 376.203 442.695 375.723 442.678 375.53ZM564.877 375.77C564.891 375.5 564.925 374.994 564.952 374.645C565.009 373.928 565.052 373.932 568.871 375.043L571.084 375.686L570.916 376.724C570.823 377.295 570.702 377.807 570.646 377.863C570.591 377.918 569.264 377.581 567.699 377.113C565.579 376.479 564.859 376.136 564.877 375.77ZM426.997 378.206L429.856 377.38C431.429 376.925 432.938 376.537 433.21 376.518C433.775 376.478 434.07 377.072 434.07 378.246C434.07 379.035 433.979 379.077 430.751 379.769C428.925 380.16 427.381 380.427 427.318 380.363C427.256 380.298 427.158 379.787 427.1 379.226L426.997 378.206ZM572.529 378.384C572.528 378.188 572.665 377.666 572.833 377.225C573.06 376.626 573.271 376.476 573.661 376.634C573.948 376.75 574.86 377.087 575.688 377.382C578.617 378.425 578.905 378.625 578.695 379.474C578.59 379.899 578.405 380.348 578.283 380.474C577.971 380.795 572.531 378.819 572.529 378.384ZM537.634 379.854C537.27 379.643 537.292 379.393 537.785 378.196C538.104 377.421 538.454 376.786 538.563 376.785C539.184 376.782 547.362 381.748 554.508 386.468C559.042 389.464 569.765 397.244 569.784 397.553C569.789 397.636 569.336 398.222 568.776 398.855L567.759 400.007L562.844 396.284C555.807 390.953 547.837 385.759 537.634 379.854ZM580.052 381.508C580.052 381.443 580.201 380.962 580.383 380.441C580.565 379.92 580.76 379.493 580.817 379.493C581.114 379.493 586.091 381.988 586.224 382.204C586.412 382.508 585.77 384.008 585.452 384.008C585.138 384.008 580.052 381.654 580.052 381.508ZM470.816 380.577C470.64 380.364 470.573 380.113 470.668 380.018C470.763 379.923 471.405 380.102 472.095 380.415C472.785 380.728 473.722 380.988 474.178 380.991C474.633 380.995 475.005 381.115 475.005 381.258C475.005 381.401 474.309 382.169 473.458 382.964C472.007 384.322 471.887 384.377 471.506 383.857C471.116 383.324 471.008 383.322 468.764 383.809C467.478 384.088 466.148 384.391 465.806 384.483C465.298 384.62 465.125 384.453 464.851 383.559C464.698 383.062 464.593 382.773 464.685 382.577C464.823 382.281 465.412 382.196 466.97 381.922C470.15 381.362 471.171 381.005 470.816 380.577ZM442.901 381.581C439.051 382.358 439.014 382.254 442.751 381.163C444.075 380.776 445.222 380.512 445.3 380.577C445.583 380.809 444.521 381.254 442.901 381.581ZM432.565 383.598C432.565 382.968 432.793 382.836 434.597 382.424C435.714 382.169 436.715 381.947 436.822 381.931C437.019 381.9 437.483 383.413 437.32 383.557C437.131 383.724 434.006 384.309 433.303 384.309C432.728 384.309 432.565 384.152 432.565 383.598ZM416.776 384.174L418.575 383.828C419.565 383.639 420.476 383.466 420.6 383.445C420.725 383.424 420.826 383.869 420.826 384.435C420.826 385.001 420.9 385.655 420.989 385.888C421.113 386.212 420.664 386.387 419.108 386.626C417.984 386.798 417.042 386.923 417.016 386.903C416.989 386.883 416.925 386.261 416.872 385.521L416.776 384.174ZM587.951 385.607C587.304 385.214 587.293 385.15 587.732 384.3C587.987 383.808 588.337 383.406 588.511 383.406C588.952 383.406 592.997 386.051 592.989 386.335C592.985 386.462 592.729 386.895 592.42 387.297L591.859 388.027L590.245 387.024C589.357 386.472 588.325 385.834 587.951 385.607ZM527.98 409.593V396.65V383.707H529.636H531.291V396.499V409.292L540.697 409.293C552.969 409.294 558.682 409.548 558.682 410.091C558.682 410.424 556.255 410.496 544.987 410.496H531.291V416.515V422.535H529.624H527.956L528.044 416.515L528.131 410.495L514.21 410.495L500.289 410.496V414.692C500.289 417.164 500.165 418.964 499.988 419.074C499.735 419.23 499.581 416.21 499.579 411.046C499.579 410.616 499.048 410.508 495.946 410.306C492.768 410.1 492.501 410.044 493.817 409.858C494.645 409.741 496.237 409.634 497.354 409.619L499.386 409.593V406.432V403.272H496.075C494.254 403.272 492.764 403.151 492.764 403.003C492.764 402.52 493.67 402.369 496.551 402.369H499.386L499.432 400.789C499.457 399.92 499.509 399.073 499.547 398.907C499.586 398.742 499.633 398.166 499.652 397.628C499.671 397.09 499.822 396.65 499.988 396.65C500.167 396.65 500.289 397.804 500.289 399.509V402.369H503.775C506.431 402.369 507.232 402.458 507.137 402.745C507.049 403.009 506.009 403.146 503.651 403.206L500.289 403.292V406.442V409.593H514.135H527.98ZM430.967 384.58C430.353 384.552 430.36 384.533 431.06 384.309C431.474 384.177 431.854 384.055 431.906 384.038C431.957 384.022 431.915 384.143 431.812 384.309C431.71 384.475 431.33 384.596 430.967 384.58ZM405.372 387.287C405.326 386.329 405.363 386.3 407.281 385.79C409.882 385.099 409.99 385.103 409.995 385.889C409.997 386.262 410.075 386.851 410.168 387.199C410.324 387.78 410.151 387.861 408.033 388.203C406.765 388.407 405.658 388.505 405.573 388.42C405.488 388.335 405.397 387.825 405.372 387.287ZM397.499 396.354C413.138 393.171 439.629 387.727 442.498 387.107C445.042 386.557 445.057 386.558 445.252 387.162C445.521 387.998 445.554 389.727 445.3 389.727C444.986 389.727 432.604 392.003 425.642 393.34C422.248 393.992 418.32 394.729 416.913 394.977C415.506 395.225 407.978 396.575 400.184 397.977C382.463 401.165 358.441 405.126 357.282 405.051C356.412 404.994 378.233 400.275 397.499 396.354ZM593.604 388.966C593.6 388.796 593.805 388.36 594.059 387.998C594.505 387.361 594.547 387.357 595.359 387.856C595.82 388.14 596.777 388.871 597.486 389.48L598.774 390.588L598.217 391.352C597.67 392.104 597.216 392.353 597.202 391.909C597.198 391.785 596.388 391.142 595.403 390.479C594.418 389.817 593.608 389.136 593.604 388.966ZM599.959 397.52C600.33 394.925 601.964 392.651 604.132 391.712C604.711 391.461 606.037 391.25 607.079 391.244C609.353 391.23 610.769 391.864 612.338 393.6C614.155 395.612 614.507 396.52 614.512 399.208C614.516 401.35 614.413 401.799 613.581 403.272C612.93 404.425 612.206 405.201 611.196 405.83C609.913 406.628 609.478 406.733 607.441 406.733C605.403 406.733 604.967 406.628 603.657 405.821C602.842 405.32 601.766 404.301 601.265 403.556C600.378 402.237 600.323 402.208 599.158 402.415C598.5 402.532 595.407 403.119 592.284 403.719C589.162 404.319 586.574 404.769 586.535 404.718C586.369 404.508 585.753 401.685 585.851 401.587C585.939 401.499 593.715 399.981 598.561 399.106C599.714 398.898 599.771 398.834 599.959 397.52ZM613.596 393.401C613.026 392.734 612.56 392.107 612.56 392.006C612.56 391.542 616.836 393.041 618.326 394.027C619.523 394.819 622.401 400.34 624.146 405.187C626.032 410.431 627.864 418.923 627.108 418.923C626.954 418.923 626.293 418.37 625.639 417.693C624.985 417.016 623.19 415.512 621.651 414.351C620.112 413.189 618.665 411.948 618.434 411.593C618.204 411.238 617.333 409.432 616.499 407.58L614.983 404.213L615.575 401.898C616.447 398.486 615.886 396.076 613.596 393.401ZM432.866 401.759C437.98 397.974 440.44 396.192 443.1 394.348C444.838 393.143 446.337 392.152 446.432 392.146C446.526 392.14 446.878 392.44 447.214 392.812C447.549 393.185 448.064 393.628 448.357 393.798C448.808 394.059 448.013 394.73 443.211 398.139C440.087 400.356 436.812 402.712 435.932 403.374L434.333 404.578L433.223 403.447L432.113 402.316L432.866 401.759ZM384.443 393.604C384.528 393.402 384.904 393.322 385.911 393.1C387.837 392.675 388.018 392.683 388.018 393.188C388.018 393.437 388.024 393.741 388.032 393.866C388.039 393.99 387.297 394.241 386.382 394.425C384.846 394.732 384.706 394.714 384.536 394.176C384.447 393.898 384.39 393.728 384.443 393.604ZM573.195 412.428C566.967 409.325 567.508 399.808 574.033 397.697C576.723 396.826 580.379 397.783 582.088 399.804C583.474 401.444 584.081 403.221 584.094 405.68C584.107 408.239 583.532 409.657 581.81 411.308C579.643 413.385 576.051 413.852 573.195 412.428ZM403.067 403.736C403.067 403.039 403.16 402.376 403.275 402.262C403.75 401.787 404.127 402.353 404.213 403.671C404.263 404.445 404.437 405.078 404.599 405.078C405.151 405.078 405.42 406.398 405.028 407.185C404.822 407.599 404.691 408.547 404.737 409.292C404.817 410.596 404.788 410.647 403.955 410.677C403.16 410.707 403.076 410.605 402.895 409.402C402.709 408.158 402.653 408.098 401.755 408.166C400.841 408.236 400.81 408.198 400.81 407.034C400.81 405.978 400.903 405.817 401.563 405.726C402.725 405.565 403.067 405.113 403.067 403.736ZM448.353 404.656C448.245 404.082 448.246 403.468 448.355 403.291C448.464 403.115 449.222 402.971 450.04 402.971H451.528V404.034C451.528 405.153 451.441 405.221 449.662 405.517C448.582 405.696 448.543 405.67 448.353 404.656ZM411.571 404.327C411.778 404.256 413.437 404.003 415.258 403.766C417.079 403.529 418.662 403.321 418.776 403.303C419.36 403.214 418.788 404.496 418.129 404.752C417.206 405.11 413.883 405.875 412.323 406.089C411.237 406.238 411.194 406.21 411.194 405.35C411.194 404.859 411.364 404.398 411.571 404.327ZM424.454 407.866C424.463 407.74 425.715 406.797 427.238 405.772C428.761 404.746 430.142 403.903 430.308 403.899C430.81 403.886 432.667 405.73 432.36 405.938C432.202 406.044 430.91 406.978 429.488 408.012C428.066 409.047 426.789 409.89 426.649 409.885C426.303 409.873 424.434 408.154 424.454 407.866ZM444.963 404.283C445.017 404.188 445.169 404.15 445.433 404.081C446.79 403.726 447.013 403.845 447.013 404.927C447.013 405.831 446.913 405.981 446.309 405.981C445.846 405.981 445.485 405.718 445.255 405.214C444.997 404.648 444.888 404.412 444.963 404.283ZM386.814 407.974C390.373 407.39 393.624 406.857 394.038 406.789C396.043 406.458 396.145 406.504 396.145 407.747C396.145 408.093 396.215 408.333 396.146 408.522C395.943 409.086 394.512 409.206 386.362 410.333C376.436 411.707 367.764 412.61 364.899 412.569L362.584 412.536L364.239 412.111C366.399 411.556 378.61 409.318 386.814 407.974ZM412.775 415.654C413.975 414.985 416.582 413.284 418.569 411.875C420.555 410.465 422.316 409.311 422.482 409.31C422.868 409.307 424.934 411.012 424.737 411.172C421.429 413.855 416.555 417.035 414.668 417.741C413.028 418.355 412.968 418.356 411.8 417.818C411.144 417.515 410.604 417.179 410.6 417.069C410.596 416.96 411.575 416.323 412.775 415.654ZM538.527 428.338L552.743 418.821C560.562 413.587 567.027 409.306 567.11 409.309C567.421 409.319 568.975 412.042 568.78 412.237C568.668 412.349 565.27 414.61 561.229 417.262C557.188 419.914 550.876 424.116 547.202 426.599C542.708 429.636 540.478 430.981 540.387 430.708C540.312 430.485 539.863 429.861 539.389 429.321L538.527 428.338ZM440.993 412.781V411.47C440.993 410.673 441.111 410.232 441.294 410.345C441.459 410.447 441.595 411.077 441.595 411.744V412.957L442.724 412.792C443.345 412.702 444.597 412.549 445.508 412.452C446.418 412.355 447.671 412.203 448.292 412.112L449.421 411.948V413.14C449.421 413.564 449.442 413.849 449.326 414.059C449.066 414.53 448.114 414.619 444.68 415.046L441.595 415.43V416.725C441.595 417.438 441.459 418.02 441.294 418.02C441.128 418.02 440.993 417.408 440.993 416.66C440.993 415.407 440.94 415.312 440.316 415.445C439.943 415.525 437.268 415.802 434.371 416.06C431.474 416.318 428.605 416.58 427.995 416.642C426.634 416.779 426.238 416.129 427.271 415.451C427.92 415.027 432.88 414.018 438.66 413.137L440.993 412.781ZM581.897 413.687L583.006 412.705C584.318 411.546 584.372 411.534 584.907 412.262C585.134 412.572 586.756 414.708 588.512 417.009C592.397 422.103 601.144 435.347 600.778 435.583C600.719 435.622 600.138 436.046 599.488 436.525C598.518 437.24 598.259 437.319 598.053 436.964C594.658 431.122 589.269 423.164 584.929 417.584L581.897 413.687ZM352.129 413.556C351.691 413.117 352.081 412.702 353.102 412.519C354.561 412.257 354.631 412.283 354.529 413.043C354.474 413.45 354.312 413.891 354.169 414.021C354.026 414.151 354.006 414.089 354.125 413.882C354.244 413.675 354.19 413.506 354.005 413.506C353.82 413.506 353.753 413.37 353.855 413.205C353.957 413.039 353.777 412.904 353.453 412.904C353.13 412.904 352.779 413.129 352.673 413.405C352.527 413.788 352.397 413.824 352.129 413.556ZM340.521 415.423C340.441 414.874 340.677 414.717 342.175 414.324C344.624 413.682 344.675 413.69 344.675 414.691C344.675 415.518 344.581 415.589 343.245 415.776C340.751 416.125 340.619 416.108 340.521 415.423ZM389.523 415.634C389.523 415.316 389.76 414.993 390.049 414.917C391.3 414.59 391.63 414.704 391.63 415.462C391.63 416.121 391.499 416.214 390.576 416.214C389.737 416.214 389.523 416.097 389.523 415.634ZM576.049 415.652L577.374 415.537C578.102 415.474 578.833 415.442 578.999 415.467C579.474 415.537 579.819 428.646 579.589 437.811L579.382 446.013H577.911H576.44V434.472C576.44 428.124 576.352 421.293 576.245 419.291L576.049 415.652ZM359.724 417.469C359.724 417.165 359.815 416.826 359.925 416.716C360.035 416.606 360.577 416.515 361.129 416.515C361.999 416.515 362.132 416.616 362.132 417.268C362.132 417.945 362.012 418.02 360.928 418.02C359.961 418.02 359.724 417.912 359.724 417.469ZM611.45 434.335C612.444 431.74 617.073 420.502 618.077 418.246C618.501 417.294 619.024 416.517 619.24 416.518C620.065 416.524 623.005 418.484 624.637 420.116C625.573 421.053 626.794 422.691 627.35 423.757L628.362 425.696L628.346 432.92C628.333 438.967 628.221 440.781 627.659 444.057C626.133 452.967 623.551 460.642 620.664 464.853C619.141 467.075 613.534 470.068 610.86 470.086L609.913 470.093L609.735 462.793C609.638 458.779 609.474 454.769 609.372 453.882C609.191 452.305 609.213 452.242 610.407 451.023C613.874 447.478 614.385 441.949 611.63 437.79L610.677 436.352L611.45 434.335ZM354.306 418.321C353.177 418.321 352.838 418.084 353.303 417.619C353.413 417.509 353.955 417.418 354.507 417.418C355.198 417.418 355.51 417.559 355.51 417.87C355.51 418.196 355.176 418.321 354.306 418.321ZM332.785 419.525C332.239 419.525 332.186 419.033 332.71 418.822C332.917 418.738 333.12 418.659 333.161 418.646C333.203 418.633 333.237 418.826 333.237 419.074C333.237 419.322 333.034 419.525 332.785 419.525ZM386.387 421.783L388.933 421.613L389.297 421.589C390.588 421.503 391.896 421.416 392.316 421.387C393.303 421.321 393.363 421.458 393.506 424.124L393.616 426.165L389.989 426.081L386.362 425.997L386.375 423.89L386.387 421.783ZM344.374 423.608C352.136 423.175 366.104 422.491 371.614 422.274C375.09 422.137 378.646 422.004 379.515 421.979L381.095 421.933V424.04V426.147L376.505 426.144C363.804 426.136 334.307 424.965 334.799 424.488C334.927 424.363 341.248 423.782 344.374 423.608ZM327.207 425.244C325.953 425.244 325.479 424.781 325.821 423.89C325.935 423.592 326.407 423.438 327.207 423.438C328.355 423.438 328.421 423.487 328.421 424.341C328.421 425.195 328.355 425.244 327.207 425.244ZM412.733 426.567C412.669 426.511 412.793 425.833 413.01 425.06L413.403 423.654L423.059 423.858C435.208 424.113 454.05 424.656 454.148 424.754C454.189 424.795 454.138 425.531 454.037 426.391L453.852 427.953L451.411 427.949C450.068 427.947 446.396 427.819 443.25 427.666C440.105 427.511 431.978 427.224 425.191 427.027C418.403 426.829 412.797 426.622 412.733 426.567ZM523.483 437.826C521.208 433.272 523.341 427.774 528.032 426.1C531.858 424.736 535.964 426.329 538.143 430.025C539.319 432.021 539.458 435.432 538.452 437.63C537.001 440.799 534.36 442.53 530.993 442.518C527.555 442.507 525.035 440.932 523.483 437.826ZM478.624 427.601C477.851 426.799 477.295 426.065 477.389 425.971C477.58 425.78 490.978 426.148 491.334 426.354C491.459 426.425 491.56 427.157 491.56 427.979V429.474L485.795 429.267L480.03 429.06L478.624 427.601ZM494.344 429.594C494.108 429.521 493.968 428.911 493.968 427.963V426.448L495.398 426.45C496.184 426.451 498.148 426.539 499.762 426.646L502.697 426.84V428.461V430.083L498.709 429.896C496.515 429.794 494.551 429.658 494.344 429.594ZM504.868 430.225C504.799 430.155 504.836 429.416 504.951 428.582L505.159 427.065L507.013 427.235C509.516 427.464 517.871 428.5 519.552 428.79C520.297 428.918 520.897 429.155 520.885 429.316C520.873 429.477 520.754 430.185 520.621 430.888C520.52 431.422 520.468 431.76 520.271 431.945C519.926 432.27 519.134 432.12 516.844 431.73C515.436 431.491 512.194 431.082 509.639 430.822C507.084 430.563 504.937 430.294 504.868 430.225ZM330.302 430.475C329.277 430.229 329.215 430.178 329.462 429.779C329.571 429.603 329.991 429.458 330.395 429.458C330.931 429.458 331.13 429.622 331.13 430.066C331.13 430.576 330.997 430.642 330.302 430.475ZM471.841 431.815C472.257 431.321 472.597 430.792 472.597 430.639C472.597 430.062 473.334 430.444 477.943 433.413C482.569 436.393 486.665 439.021 494.769 444.207C499.096 446.976 513.052 456.277 519.46 460.663L523.432 463.381L522.286 464.5L521.14 465.619L508.308 457.096C501.25 452.407 491.513 446.002 486.67 442.862C481.827 439.722 476.339 436.154 474.475 434.933L471.085 432.714L471.841 431.815ZM348.061 434.406C347.142 434.257 347.082 434.172 347.082 433.015V431.782L348.663 431.972C349.532 432.077 350.954 432.163 351.823 432.165L353.403 432.167V433.672C353.403 434.402 353.418 434.809 353.222 435.001C352.963 435.254 352.337 435.13 350.825 434.871C349.843 434.703 348.599 434.494 348.061 434.406ZM340.461 432.769C340.129 432.769 339.859 432.642 339.859 432.487C339.859 432.332 340.129 432.225 340.461 432.25C340.792 432.275 341.063 432.402 341.063 432.532C341.063 432.663 340.792 432.769 340.461 432.769ZM359.759 434.163C359.8 433.479 359.892 432.751 359.962 432.543C360.048 432.291 360.774 432.167 362.164 432.167H364.239V433.805C364.239 434.706 364.138 435.498 364.013 435.566C363.889 435.634 362.864 435.626 361.735 435.548L359.684 435.405L359.759 434.163ZM369.464 436.173C369.183 436.065 369.055 435.456 369.055 434.232V432.448L372.291 432.533C374.279 432.586 375.187 432.606 375.534 433.058C375.828 433.44 375.722 434.131 375.529 435.412L375.328 436.756L372.6 436.542C371.099 436.425 369.688 436.259 369.464 436.173ZM380.869 437.007C380.606 436.99 380.493 436.351 380.493 434.89V432.797L382.073 432.948C382.942 433.031 384.229 433.168 384.933 433.253L386.212 433.408V435.426V437.444L383.729 437.237C382.363 437.124 381.076 437.02 380.869 437.007ZM391.329 437.886V435.779V433.672L392.608 433.676C395.184 433.685 395.303 433.795 395.162 436.046C395.083 437.309 394.91 438.025 394.688 438.007C394.496 437.99 393.661 437.956 392.834 437.931L391.329 437.886ZM403.384 440.736C402.763 441.12 402.334 439.784 402.216 437.103L402.093 434.274H403.312C404.212 434.274 404.574 434.412 404.691 434.801C404.869 435.386 404.701 438.597 404.398 440.42C404.24 441.366 404.145 441.499 403.917 441.091C403.76 440.811 403.521 440.651 403.384 440.736ZM420.224 441.799V438.488V435.177H421.533C422.253 435.177 423.879 435.265 425.145 435.372L427.448 435.566V438.877V442.187L425.416 441.995C424.299 441.89 422.674 441.802 421.804 441.801L420.224 441.799ZM458.195 448.154C457.704 447.843 457.346 440.322 457.675 437.243L457.886 435.27L459.518 435.901L461.149 436.532L461.154 440.626C461.157 442.878 461.072 445.553 460.966 446.571L460.773 448.421L459.687 448.416C459.09 448.414 458.418 448.296 458.195 448.154ZM596.886 441.912C597.493 439.501 599.719 437.063 602.12 436.178C605.706 434.857 609.993 436.87 611.356 440.516C613.804 447.058 608.412 453.309 601.982 451.382C598.45 450.324 595.942 445.662 596.886 441.912ZM435.274 441.799V439.391V436.983H437.832H440.391V439.391V441.799H437.832H435.274ZM445.809 442.057V439.821V437.585L448.141 437.588C449.425 437.59 450.988 437.677 451.615 437.78L452.756 437.969L452.669 440.11L452.581 442.251L450.775 442.347C449.782 442.4 448.258 442.356 447.389 442.25L445.809 442.057ZM370.329 442.873C370.251 442.794 370.279 442.239 370.392 441.639C370.593 440.565 370.614 440.551 371.782 440.722C374.416 441.108 375.135 441.167 375.322 441.513C375.415 441.686 375.376 441.93 375.376 442.322V443.393L372.924 443.204C371.575 443.1 370.408 442.951 370.329 442.873ZM378.063 443.383C377.946 443.257 377.76 442.849 377.647 442.476C377.447 441.816 377.496 441.8 379.645 441.826C380.856 441.84 382.525 441.941 383.352 442.051C384.833 442.247 384.859 442.269 384.951 443.379L385.044 444.508L383.747 444.503C382.273 444.497 378.381 443.73 378.063 443.383ZM465.674 442.826C465.674 442.617 465.912 442.376 466.201 442.292C466.491 442.208 467.322 442.198 468.049 442.27C468.776 442.342 469.893 442.401 470.532 442.401C471.571 442.401 471.694 442.481 471.694 443.154C471.694 443.889 471.643 443.906 469.451 443.906C467.132 443.906 465.674 443.489 465.674 442.826ZM386.757 445.11C386.623 445.11 386.513 444.49 386.513 443.731V442.353L388.544 442.569C389.662 442.688 391.795 442.936 393.285 443.12L395.994 443.455L395.968 444.735C395.954 445.439 395.875 446.082 395.793 446.163C395.711 446.245 393.7 446.042 391.323 445.711C388.946 445.381 386.891 445.11 386.757 445.11ZM398.93 446.287C398.805 446.045 398.854 445.713 398.854 445.213V443.823L401.186 444.034C402.469 444.15 404.806 444.429 406.378 444.654C407.951 444.878 410.626 445.23 412.323 445.435L415.408 445.809V447.097C415.408 447.806 415.307 448.444 415.183 448.515C414.953 448.647 414.407 448.592 405.325 447.512C400.435 446.931 399.219 446.848 398.93 446.287ZM528.281 461.665V453.424V445.184L529.711 445.338C530.497 445.422 531.157 445.507 531.178 445.526C531.197 445.546 531.283 449.185 531.366 453.613L531.519 461.665H529.9H528.281ZM417.811 448.869C417.481 448.665 417.415 447.227 417.701 446.482C417.836 446.131 418.143 446.04 418.829 446.15C419.799 446.304 429.895 447.452 431.511 447.591C432.377 447.665 432.418 447.734 432.505 449.249C432.584 450.614 432.521 450.829 432.044 450.829C431.008 450.829 418.108 449.053 417.811 448.869ZM377.257 447.717C377.05 447.801 376.712 447.801 376.505 447.717C376.298 447.634 376.467 447.566 376.881 447.566C377.295 447.566 377.464 447.634 377.257 447.717ZM379.37 448.016C379.166 448.099 378.76 448.104 378.467 448.028C378.174 447.951 378.341 447.884 378.837 447.878C379.334 447.872 379.574 447.934 379.37 448.016ZM438.434 458.2C427.804 456.554 380.789 448.57 380.041 448.283C378.886 447.839 381.885 448.223 398.703 450.671C401.517 451.081 407.342 451.9 411.646 452.49C442.811 456.765 499.54 465.032 511.819 467.087C515.76 467.747 519.127 468.287 519.302 468.287C519.599 468.287 519.483 469.648 519.065 471.071C518.868 471.74 518.47 471.732 514.684 470.983C509.018 469.862 486.441 465.933 476.661 464.366C471.363 463.518 461.746 461.961 455.29 460.907C448.834 459.854 441.249 458.635 438.434 458.2ZM434.676 450.289C434.678 449.841 434.762 449.17 434.862 448.797C434.92 448.579 434.961 448.422 435.059 448.318C435.31 448.051 435.934 448.133 438.187 448.425C441.21 448.816 442.127 448.878 442.396 449.328C442.545 449.576 442.498 449.941 442.498 450.541C442.498 451.191 442.502 451.594 442.304 451.816C441.976 452.183 441.097 452.056 438.735 451.731C435.691 451.312 434.927 451.213 434.737 450.831C434.67 450.695 434.675 450.523 434.676 450.289ZM574.835 461.259C575.454 460.91 575.494 459.532 575.871 454.213L576.261 448.717L577.781 448.911C578.616 449.018 579.32 449.12 579.344 449.139C579.43 449.205 578.561 461.218 578.433 461.74C578.248 462.489 578.473 462.404 579.763 461.239C581.441 459.722 590.776 454.257 594.609 452.547C597.207 451.388 598.039 451.135 598.401 451.394C600.21 452.69 601.906 453.293 603.873 453.339C604.801 453.361 605.358 453.352 605.739 453.607C606.349 454.014 606.508 455.096 607.02 458.053C607.411 460.315 607.473 461.918 607.315 465.728C607.206 468.377 607.004 471.037 606.868 471.639C606.731 472.241 605.765 473.866 604.721 475.251C602.268 478.504 594.175 486.594 590.888 489.078L588.33 491.012L583.213 490.995C577.626 490.976 575.785 490.695 572.151 489.303L569.819 488.41L569.823 485.798C569.828 483.223 570.503 479.744 571.428 477.53L571.87 476.474L570.549 475.969C569.766 475.671 568.745 474.917 568.045 474.121L566.861 472.777L561.944 473.089C559.239 473.261 553.674 473.492 549.577 473.602L542.127 473.801V472.097V470.394L546.266 470.395C550.688 470.397 563.63 469.871 565.188 469.626C566.041 469.492 566.143 469.355 566.311 468.129C566.832 464.334 570.019 461.386 573.619 461.37C574.185 461.368 574.565 461.411 574.835 461.259ZM444.605 451.009C444.605 450.303 444.695 449.635 444.806 449.525C444.916 449.414 445.153 449.329 445.332 449.335C446.277 449.369 454.874 450.464 454.966 450.563C455.025 450.626 455.004 451.383 454.919 452.244C454.772 453.739 454.729 453.803 453.974 453.672C453.539 453.597 451.49 453.327 449.421 453.073C446.004 452.653 445.007 452.56 444.719 452.059C444.584 451.824 444.605 451.499 444.605 451.009ZM457.322 453.995C457.087 453.909 456.946 453.273 456.946 452.302V450.746L458.827 450.918C461.005 451.117 474.995 452.831 476.813 453.122L478.04 453.318L477.839 454.707C477.728 455.471 477.585 456.154 477.521 456.226C477.423 456.336 472.528 455.825 460.257 454.424C458.849 454.264 457.529 454.07 457.322 453.995ZM481.14 456.292C480.985 456.045 481.025 455.675 481.025 455.051V453.566L482.605 453.748C483.475 453.848 485.405 454.079 486.895 454.261L489.604 454.591L489.695 456.021L489.787 457.451L488.491 457.453C487.779 457.454 486.112 457.307 484.788 457.126C482.234 456.778 481.404 456.713 481.14 456.292ZM381.916 454.021C381.816 454.121 381.557 454.131 381.34 454.044C381.099 453.948 381.171 453.877 381.521 453.863C381.839 453.85 382.016 453.921 381.916 454.021ZM383.421 454.322C383.321 454.422 383.062 454.432 382.845 454.345C382.604 454.249 382.676 454.178 383.026 454.164C383.344 454.151 383.521 454.222 383.421 454.322ZM386.814 455.304C385.241 454.962 383.898 454.627 383.829 454.561C383.583 454.325 384.45 454.454 390.186 455.507C393.38 456.093 398.568 457.032 401.713 457.594C416.87 460.301 432.183 463.164 441.896 465.106C451.312 466.989 477.478 472.089 488.4 474.17C495.021 475.431 500.492 476.516 500.556 476.58C500.717 476.741 499.954 479.409 499.702 479.565C499.419 479.739 462.595 472.294 456.494 470.828C455.501 470.59 449.947 469.386 444.153 468.154C432.833 465.747 415.583 461.899 399.606 458.216C394.143 456.957 388.386 455.647 386.814 455.304ZM569.52 466.927C570.232 465.457 571.129 464.576 572.377 464.121C573.572 463.686 575.491 463.947 576.504 464.684C576.952 465.01 577.345 465.002 577.614 465.277C577.977 465.647 578.352 467.739 578.166 469.393C577.98 471.043 577.235 472.121 575.66 473.022C573.325 474.357 570.592 473.667 569.531 471.474C568.754 469.87 568.751 468.516 569.52 466.927ZM522.67 469.334C523.525 467.497 526.044 465.15 527.603 464.736C528.224 464.571 529.626 464.422 530.716 464.405C532.365 464.379 533.011 464.529 534.543 465.295C537.753 466.899 539.224 469.389 539.243 473.253C539.253 475.365 539.145 475.859 538.367 477.274C536.602 480.486 533.774 482.025 530.12 481.764C526.833 481.529 524.338 479.872 522.881 476.956C521.674 474.54 521.594 471.645 522.67 469.334ZM416.01 468.76C416.01 469.313 415.071 469.232 414.882 468.663C414.808 468.442 415.015 468.287 415.383 468.287C415.753 468.287 416.01 468.481 416.01 468.76ZM425.222 472.513C424.616 472.282 424.438 472.008 424.438 471.304C424.438 470.803 424.563 470.394 424.716 470.394C424.869 470.394 426.232 470.678 427.743 471.027L430.492 471.659L430.289 472.607C430.178 473.128 430.04 473.605 429.982 473.669C429.862 473.8 426.393 472.958 425.222 472.513ZM610.494 473.428C611.547 473.028 613.486 472.181 614.801 471.547C617.004 470.485 617.978 470.175 617.978 470.535C617.978 470.911 615.029 475.614 613.537 477.617C608.318 484.627 602.659 489.983 595.253 494.922C591.876 497.174 588.026 499.236 587.738 498.948C587.65 498.86 588.153 497.46 588.857 495.838L590.136 492.888L594.7 488.865C598.723 485.318 602.604 481.262 607.186 475.811C608.306 474.48 608.954 474.013 610.494 473.428ZM438.075 475.616C437.989 475.392 438.003 474.87 438.107 474.456C438.315 473.628 438.538 473.575 440.09 473.988C440.669 474.142 441.72 474.418 442.425 474.601C443.76 474.947 443.802 475.066 443.246 476.911C443.104 477.38 438.289 476.175 438.075 475.616ZM465.524 482.275C461.22 481.053 456.953 479.785 456.043 479.459C454.016 478.732 454.837 478.666 458.192 479.287C464.101 480.38 479.286 483.8 488.249 486.057C499 488.765 524.95 495.881 525.271 496.21C525.354 496.294 525.016 496.264 524.519 496.142C524.022 496.02 521.381 495.47 518.649 494.92C515.918 494.37 511.177 493.373 508.115 492.705C505.052 492.037 500.244 491.003 497.429 490.407C487.645 488.335 480.035 486.396 465.524 482.275ZM508.717 481.287C507.656 481.055 507.235 480.279 507.624 479.267C507.804 478.797 508.379 478.848 513.207 479.764C517.13 480.508 517.512 480.697 517.255 481.768C517.148 482.217 517.024 482.628 516.98 482.681C516.903 482.774 510.871 481.756 508.717 481.287ZM468.383 490.469C464.493 489.065 460.7 487.627 459.956 487.273C458.267 486.473 458.283 486.477 465.234 488.704C486.961 495.663 506.794 499.837 524.762 501.231C527.598 501.451 528.95 501.484 530.198 501.859C531.784 502.336 533.204 503.366 537.293 506.036C540.001 507.805 541.334 508.666 541.212 509.013C541.093 509.349 539.616 509.205 536.709 508.938C520.315 507.432 500.633 502.112 468.383 490.469ZM542.907 499.9C549.136 498.099 554.934 496.052 561.09 493.482C563.656 492.41 565.785 491.518 565.822 491.498C565.859 491.479 567.755 491.79 570.036 492.191C572.317 492.591 576.418 493.139 579.149 493.409C585.435 494.031 586.19 494.184 586.319 494.859C586.484 495.723 584.726 499.13 583.338 500.636C582.633 501.401 581.192 502.51 580.134 503.101C576.71 505.016 568.471 507.502 562.444 508.439C557.581 509.195 551.161 509.585 549.085 509.251C546.866 508.893 542.821 506.863 539.892 504.636C537.55 502.856 537.004 502.185 537.496 501.693C537.672 501.516 540.107 500.709 542.907 499.9Z" fill="#A2FF01"/>
<path fill-rule="evenodd" clip-rule="evenodd" d="M457.697 421.484C457.531 421.587 457.396 421.527 457.396 421.351C457.396 421.176 457.531 421.033 457.697 421.033C457.862 421.033 457.998 421.092 457.998 421.165C457.998 421.239 457.862 421.382 457.697 421.484ZM456.398 428.313C456.302 428.553 456.23 428.482 456.216 428.131C456.203 427.814 456.274 427.636 456.374 427.736C456.474 427.836 456.485 428.096 456.398 428.313Z" fill="#A2FF01"/>
<path d="M457.396 421.351C457.396 421.527 457.531 421.587 457.697 421.484C457.862 421.382 457.998 421.239 457.998 421.165C457.998 421.092 457.862 421.033 457.697 421.033C457.531 421.033 457.396 421.176 457.396 421.351Z" fill="#A2FF01"/>
<path d="M456.216 428.131C456.23 428.482 456.302 428.553 456.398 428.313C456.485 428.096 456.474 427.836 456.374 427.736C456.274 427.636 456.203 427.814 456.216 428.131Z" fill="#A2FF01"/>
<path d="M561.692 432.92V440.294H552.06H542.428L541.493 440.765C540.572 441.335 542.768 441.489 551.834 441.494L561.692 441.498V447.543C561.692 452.245 561.775 453.56 562.068 453.463C562.348 453.37 562.465 451.831 562.526 447.438L562.607 441.537L567.694 441.443C572.493 441.353 573.534 441.202 573.005 440.67C572.881 440.546 570.488 440.402 567.687 440.349L562.595 440.254V432.9C562.595 426.563 562.532 425.545 562.143 425.545C561.754 425.545 561.692 426.565 561.692 432.92Z" fill="#A2FF01"/>
<path d="M498.859 445.021C498.487 445.093 498.182 445.329 498.182 445.545C498.182 445.968 499.221 445.968 514.742 445.551L522.423 445.344L523.046 445.285C523.211 444.856 522.072 444.813 511.383 444.85C504.867 444.873 499.231 444.95 498.859 445.021Z" fill="#A2FF01"/>
<path d="M477.037 445.646C475.013 445.694 473.5 445.855 473.5 446.022C473.5 446.183 474.008 446.315 474.629 446.316C475.25 446.317 476.672 446.405 477.789 446.51L479.821 446.702L481.326 446.615H483.584L485.818 446.641L488.463 446.553C489.832 446.501 490.777 446.339 490.734 446.163C490.65 445.822 482.52 445.515 477.037 445.646Z" fill="#A2FF01"/>
<path d="M396.145 419.443C396.12 420.571 395.704 426.147 395.534 426.465C394.608 428.194 399.039 431.942 402.816 432.627C404.2 432.878 407.172 432.058 407.507 431.333C407.64 431.047 407.739 430.542 407.728 430.211C407.716 429.88 408.269 428.972 408.956 428.195C409.676 427.379 410.367 426.199 410.59 425.404C411.378 422.59 410.235 419.123 408.025 417.621L405.354 414.892C405.628 414.179 401.14 414.408 399.447 415.193L396.145 419.443Z" fill="#A2FF01"/>
<path d="M520.205 376.119C520.935 375.774 520.976 375.631 520.966 373.485L515.451 374.041C511.257 375.039 499.788 378.005 489.754 380.686C477.14 384.056 469.806 386.007 467.437 386.622L465.438 387.141L465.283 388.509C465.197 389.262 465.176 389.927 465.235 389.987C465.294 390.048 467.212 389.615 469.496 389.027C482.307 385.725 492.979 383.036 503.148 380.547C509.439 379.007 515.393 377.536 516.379 377.278C517.365 377.02 518.207 376.843 518.249 376.885L520.205 376.119Z" fill="#A2FF01"/>
<path d="M525.338 365.821C522.408 367.281 520.948 369.841 520.966 373.485C520.976 375.631 520.935 375.774 520.205 376.119L518.249 376.885C518.291 376.928 516.672 378.039 514.65 379.356C503.062 386.902 489.96 397.881 477.169 410.765L469.249 418.742L469.945 419.271C470.553 419.733 470.921 420.102 471.343 420.183C472.369 420.378 473.718 418.868 479.626 412.843C492.762 399.446 505.314 389.097 518.631 380.684L522.376 378.318L523.623 379.468C525.189 380.911 526.691 381.436 529.184 381.413C531.486 381.393 532.885 380.858 534.533 379.369C537.784 376.433 537.917 370.765 534.813 367.492C532.465 365.017 528.393 364.299 525.338 365.821Z" fill="#A2FF01"/>
<path d="M474.253 397.98L470.791 398.496C468.888 398.779 466.415 399.103 465.298 399.216C464.075 399.339 463.272 399.557 463.279 399.765C463.286 399.956 463.762 400.643 464.336 401.294L465.38 402.477L470.117 401.788C472.723 401.408 474.99 401.015 475.156 400.914C475.321 400.813 475.728 400.695 476.059 400.651C477.211 400.497 479.219 399.881 479.219 399.681C479.219 399.57 479.68 399.313 480.243 399.11C480.806 398.906 481.432 398.54 481.634 398.297C481.95 397.917 481.793 397.856 480.535 397.869C479.729 397.878 478.15 397.987 477.028 398.111C475.933 398.233 475.376 398.314 475.074 398.075L474.253 397.98Z" fill="#A2FF01"/>
<path d="M453.635 378.253C451.429 378.982 449.165 380.42 448.53 381.496C447.9 382.564 447.889 382.681 448.336 383.618C448.435 384.583 448.438 384.615 448.438 384.615L448.682 387.168C448.699 389.666 449.363 391.168 451.175 392.805C452.745 394.224 455.14 394.782 457.534 394.286C462.088 393.344 464.335 388.078 462.08 383.632C461.597 382.68 461.312 381.901 461.447 381.901C461.941 381.901 461.977 380.412 461.493 379.987C459.773 378.48 455.68 377.576 453.635 378.253Z" fill="#A2FF01"/>
<path fill-rule="evenodd" clip-rule="evenodd" d="M457.697 421.484C457.531 421.587 457.396 421.527 457.396 421.351C457.396 421.176 457.531 421.033 457.697 421.033C457.862 421.033 457.998 421.092 457.998 421.165C457.998 421.239 457.862 421.382 457.697 421.484ZM456.398 428.313C456.302 428.553 456.23 428.482 456.216 428.131C456.203 427.814 456.274 427.636 456.374 427.736C456.474 427.836 456.485 428.096 456.398 428.313Z" fill="#A2FF01"/>
<path fill-rule="evenodd" clip-rule="evenodd" d="M456.719 396.871C456.062 396.94 455.59 397.151 455.59 397.376C455.59 397.589 455.934 401.407 456.354 405.861C457.151 414.311 457.359 418.793 457.054 420.957L456.279 426.228C455.53 427.841 455.289 428.645 455.289 429.524C455.289 430.588 456.572 432.749 458.056 434.186L462.663 434.367L463.867 434.319C465.577 434.25 467.96 433.048 469.091 431.682C470.329 430.187 471.066 427.733 470.803 425.978C470.351 422.965 467.396 420.248 464.21 419.92L461.185 418.224C460.669 418.224 460.558 417.509 459.944 410.197C459.687 407.134 459.348 403.477 459.191 402.07C459.034 400.663 458.905 398.868 458.903 398.082C458.901 396.903 458.809 396.661 458.374 396.703C458.085 396.731 457.34 396.807 456.719 396.871ZM457.697 421.484C457.531 421.587 457.396 421.527 457.396 421.351C457.396 421.176 457.531 421.033 457.697 421.033C457.862 421.033 457.998 421.092 457.998 421.165C457.998 421.239 457.862 421.382 457.697 421.484ZM456.398 428.313C456.302 428.553 456.23 428.482 456.216 428.131C456.203 427.814 456.274 427.636 456.374 427.736C456.474 427.836 456.485 428.096 456.398 428.313Z" fill="#A2FF01"/>
<path d="M572.377 464.121C571.129 464.576 570.232 465.457 569.52 466.927C568.751 468.516 568.754 469.87 569.531 471.474C570.592 473.667 573.325 474.357 575.66 473.022C577.235 472.121 577.98 471.043 578.166 469.393C578.352 467.739 577.977 465.647 577.614 465.277C577.345 465.002 576.952 465.01 576.504 464.684C575.491 463.947 573.572 463.686 572.377 464.121Z" fill="#A2FF01"/>
</svg>
